<svg xmlns="http://www.w3.org/2000/svg" width="100" height="100" viewBox="0 0 100 100">
  <g id="collina" transform="translate(11760 12294)">
    <rect id="Rettangolo_412" data-name="Rettangolo 412" width="100" height="100" transform="translate(-11760 -12294)" fill="#006cb5" opacity="0"/>
    <path id="Tracciato_109" data-name="Tracciato 109" d="M0,43.928a1.15,1.15,0,0,1-1.15-1.15V0A1.15,1.15,0,0,1,0-1.15,1.15,1.15,0,0,1,1.15,0V42.778A1.15,1.15,0,0,1,0,43.928Z" transform="translate(-11727.307 -12262.445)" fill="#006cb5"/>
    <path id="Tracciato_110" data-name="Tracciato 110" d="M1.381,1.915a1.145,1.145,0,0,1-.556-.144L-6-2.006a1.15,1.15,0,0,1-.449-1.563,1.15,1.15,0,0,1,1.563-.449L1.939-.241a1.15,1.15,0,0,1-.558,2.156Z" transform="translate(-11728.688 -12253.484)" fill="#006cb5"/>
    <path id="Tracciato_111" data-name="Tracciato 111" d="M2.373,2.528A1.145,1.145,0,0,1,1.8,2.372l-11.722-6.8A1.15,1.15,0,0,1-10.343-6a1.15,1.15,0,0,1,1.572-.418L2.952.383a1.15,1.15,0,0,1-.578,2.145Z" transform="translate(-11729.682 -12243.783)" fill="#006cb5"/>
    <path id="Tracciato_112" data-name="Tracciato 112" d="M0,1.915a1.15,1.15,0,0,1-1.007-.593A1.15,1.15,0,0,1-.557-.241L6.265-4.018a1.15,1.15,0,0,1,1.563.449,1.15,1.15,0,0,1-.449,1.563L.557,1.771A1.145,1.145,0,0,1,0,1.915Z" transform="translate(-11727.307 -12253.484)" fill="#006cb5"/>
    <path id="Tracciato_113" data-name="Tracciato 113" d="M0,2.354a1.149,1.149,0,0,1-1-.573A1.15,1.15,0,0,1-.577.209L9.671-5.735a1.15,1.15,0,0,1,1.572.418,1.15,1.15,0,0,1-.418,1.572L.577,2.2A1.145,1.145,0,0,1,0,2.354Z" transform="translate(-11727.307 -12243.609)" fill="#006cb5"/>
    <path id="Tracciato_114" data-name="Tracciato 114" d="M-3.48-9.772A18.777,18.777,0,0,1,7.433-6.291a1.15,1.15,0,0,1,.413,1.338,20.468,20.468,0,0,0,.392,15.316,20.592,20.592,0,0,0,4.6,6.626,1.15,1.15,0,0,1,.2,1.388,19.056,19.056,0,0,1-6.808,7.016A18.872,18.872,0,0,1-3.48,28.075a18.8,18.8,0,0,1-7.365-1.487,18.863,18.863,0,0,1-6.015-4.055,18.86,18.86,0,0,1-4.056-6.014A18.8,18.8,0,0,1-22.4,9.154a18.81,18.81,0,0,1,1.488-7.368A18.86,18.86,0,0,1-16.859-4.23a18.86,18.86,0,0,1,6.015-4.055A18.8,18.8,0,0,1-3.48-9.772ZM5.39-4.893A16.471,16.471,0,0,0-3.48-7.472,16.514,16.514,0,0,0-15.233-2.6,16.517,16.517,0,0,0-20.1,9.154a16.512,16.512,0,0,0,4.87,11.753A16.515,16.515,0,0,0-3.48,25.775a16.572,16.572,0,0,0,8.526-2.354,16.753,16.753,0,0,0,5.545-5.428,22.842,22.842,0,0,1-4.462-6.715A22.687,22.687,0,0,1,4.248,2.19,22.7,22.7,0,0,1,5.39-4.893Z" transform="translate(-11723.828 -12259.879)" fill="#006cb5"/>
    <path id="Tracciato_115" data-name="Tracciato 115" d="M16.186,14.858A22.779,22.779,0,0,1,.266,8.4a1.15,1.15,0,1,1,1.6-1.652,20.49,20.49,0,0,0,14.32,5.812,20.474,20.474,0,0,0,8.021-1.619,20.539,20.539,0,0,0,6.55-4.418A20.544,20.544,0,0,0,35.174-.031a20.484,20.484,0,0,0,1.619-8.022,20.478,20.478,0,0,0-1.619-8.021,20.539,20.539,0,0,0-4.416-6.551,20.539,20.539,0,0,0-6.55-4.417,20.478,20.478,0,0,0-8.021-1.619A20.4,20.4,0,0,0,4.3-24.875,20.712,20.712,0,0,0-.122-20.614a20.623,20.623,0,0,0-3,5.417,1.15,1.15,0,0,1-1.478.679A1.15,1.15,0,0,1-5.276-16a22.921,22.921,0,0,1,3.331-6.021A23.01,23.01,0,0,1,2.97-26.75a22.691,22.691,0,0,1,13.216-4.21,22.766,22.766,0,0,1,8.917,1.8,22.828,22.828,0,0,1,7.281,4.909,22.829,22.829,0,0,1,4.908,7.281,22.766,22.766,0,0,1,1.8,8.917,22.772,22.772,0,0,1-1.8,8.918,22.834,22.834,0,0,1-4.908,7.282,22.828,22.828,0,0,1-7.281,4.91A22.762,22.762,0,0,1,16.186,14.858Z" transform="translate(-11712.861 -12249.635)" fill="#006cb5"/>
    <path id="Tracciato_116" data-name="Tracciato 116" d="M5.541,24.318a1.146,1.146,0,0,1-.8-.324A22.785,22.785,0,0,1-.8-.4,1.15,1.15,0,0,1,.677-1.078,1.15,1.15,0,0,1,1.356.4,20.509,20.509,0,0,0,6.341,22.342a1.15,1.15,0,0,1-.8,1.976Z" transform="translate(-11717.336 -12265.232)" fill="#006cb5"/>
    <path id="Tracciato_117" data-name="Tracciato 117" d="M0,54.842a1.15,1.15,0,0,1-1.15-1.15V0A1.15,1.15,0,0,1,0-1.15,1.15,1.15,0,0,1,1.15,0V53.692A1.15,1.15,0,0,1,0,54.842Z" transform="translate(-11696.673 -12272.034)" fill="#006cb5"/>
    <path id="Tracciato_118" data-name="Tracciato 118" d="M1.691,2.087a1.145,1.145,0,0,1-.556-.144L-7.217-2.682a1.15,1.15,0,0,1-.449-1.563A1.15,1.15,0,0,1-6.1-4.694L2.249-.069a1.15,1.15,0,0,1-.558,2.156Z" transform="translate(-11698.364 -12261.065)" fill="#006cb5"/>
    <path id="Tracciato_119" data-name="Tracciato 119" d="M2.906,2.836a1.145,1.145,0,0,1-.576-.155L-12.022-5.642a1.15,1.15,0,0,1-.418-1.572,1.15,1.15,0,0,1,1.572-.418L3.484.691a1.15,1.15,0,0,1-.578,2.145Z" transform="translate(-11699.58 -12249.186)" fill="#006cb5"/>
    <path id="Tracciato_120" data-name="Tracciato 120" d="M0,2.087a1.15,1.15,0,0,1-1.007-.593A1.15,1.15,0,0,1-.557-.069L7.792-4.694a1.15,1.15,0,0,1,1.563.449,1.15,1.15,0,0,1-.449,1.563L.557,1.943A1.145,1.145,0,0,1,0,2.087Z" transform="translate(-11696.673 -12261.065)" fill="#006cb5"/>
    <path id="Tracciato_121" data-name="Tracciato 121" d="M0,2.836a1.149,1.149,0,0,1-1-.573A1.15,1.15,0,0,1-.577.691L13.775-7.632a1.15,1.15,0,0,1,1.572.418,1.15,1.15,0,0,1-.418,1.572L.577,2.681A1.145,1.145,0,0,1,0,2.836Z" transform="translate(-11696.673 -12249.186)" fill="#006cb5"/>
    <path id="Tracciato_8374_-_Contorno" data-name="Tracciato 8374 - Contorno" d="M374.186-157.4a1.147,1.147,0,0,1-.845-.37c-3.779-4.089-9.037-7.059-15.629-8.829a63.482,63.482,0,0,0-19.451-1.789,84.375,84.375,0,0,0-18.073,2.848c-5.048,1.391-9.18,3.137-11.336,4.79a1.15,1.15,0,0,1-1.612-.213,1.15,1.15,0,0,1,.213-1.612c2.417-1.854,6.724-3.7,12.125-5.183a86.711,86.711,0,0,1,18.573-2.928,65.76,65.76,0,0,1,20.158,1.865c7.018,1.883,12.644,5.076,16.722,9.489a1.15,1.15,0,0,1-.064,1.625A1.146,1.146,0,0,1,374.186-157.4Z" transform="translate(-12052.459 -12050.007)" fill="#006cb5"/>
  </g>
</svg>
