<svg xmlns="http://www.w3.org/2000/svg" width="100" height="100" viewBox="0 0 100 100">
  <g id="mare" transform="translate(11992 12294)">
    <rect id="Rettangolo_410" data-name="Rettangolo 410" width="100" height="100" transform="translate(-11992 -12294)" fill="#006cb5" opacity="0"/>
    <path id="Tracciato_23" data-name="Tracciato 23" d="M0,3.42A1.3,1.3,0,0,1-1.3,2.2,1.3,1.3,0,0,1-.081.823C0,.817,5.244.441,7.885-2.4a7.618,7.618,0,0,1,5.683-2.592A9.287,9.287,0,0,1,20.29-1.707,6.065,6.065,0,0,0,24.984.325,9.355,9.355,0,0,0,30.635-2a9.955,9.955,0,0,1,6.579-2.661,10.986,10.986,0,0,1,6.23,2.532C45.527-.595,47,.136,48.38.313,50,.522,51.613-.061,53.453-1.521,55.7-3.3,57.432-4.592,59.33-4.948c1.847-.346,3.669.195,6.29,1.866.832.531,1.525.993,2.136,1.4C70.429.1,71.148.576,74.04.664a1.3,1.3,0,1,1-.08,2.6c-3.635-.111-4.809-.893-7.645-2.781-.6-.4-1.284-.855-2.094-1.372-2.342-1.494-3.458-1.681-4.412-1.5-1.193.223-2.532,1.154-4.739,2.908-2.394,1.9-4.69,2.677-7.022,2.376A13.818,13.818,0,0,1,41.9-.035a8.591,8.591,0,0,0-4.757-2.026A7.425,7.425,0,0,0,32.28.013a11.911,11.911,0,0,1-7.246,2.911,8.683,8.683,0,0,1-3.586-.68A8.872,8.872,0,0,1,18.375.051a6.741,6.741,0,0,0-4.816-2.442A5.085,5.085,0,0,0,9.789-.627C6.426,2.987.338,3.4.08,3.418Z" transform="translate(-11979 -12271.506)" fill="#006cb5"/>
    <path id="Tracciato_24" data-name="Tracciato 24" d="M.176,22.726a1.294,1.294,0,0,1-.795-.272A1.3,1.3,0,0,1-.851,20.63a90.143,90.143,0,0,1,8.468-9.58L7.6,11.033A69.8,69.8,0,0,1-1.085.716a1.3,1.3,0,0,1,.369-1.8,1.3,1.3,0,0,1,1.8.369A68.512,68.512,0,0,0,9.454,9.21l.068.066A46.9,46.9,0,0,1,16.51,4.039c4.78-2.876,9.457-4.2,13.9-3.934a18.547,18.547,0,0,1,6.932,1.807,21.527,21.527,0,0,1,4.968,3.33,22.168,22.168,0,0,1,4.046,4.679,1.3,1.3,0,0,1-.07,1.439C41.044,18.466,34.972,21.979,28.239,21.8a24.092,24.092,0,0,1-11.366-3.544,44.75,44.75,0,0,1-7.356-5.43A87.353,87.353,0,0,0,1.2,22.221,1.3,1.3,0,0,1,.176,22.726ZM11.434,11.054A41.828,41.828,0,0,0,18.2,16.022,21.523,21.523,0,0,0,28.312,19.2a15.337,15.337,0,0,0,7.865-1.949,24.852,24.852,0,0,0,7.465-6.707,21.326,21.326,0,0,0-3.128-3.422,18.869,18.869,0,0,0-4.358-2.9A15.951,15.951,0,0,0,30.226,2.7c-3.907-.227-8.077.978-12.4,3.58A44.047,44.047,0,0,0,11.434,11.054Z" transform="translate(-11968.39 -12234.173)" fill="#006cb5"/>
    <path id="Tracciato_25" data-name="Tracciato 25" d="M.148,18.866a1.294,1.294,0,0,1-.8-.278,1.3,1.3,0,0,1-.218-1.825,75.035,75.035,0,0,1,6.892-7.7A57.6,57.6,0,0,1-1.08.724a1.3,1.3,0,0,1,.356-1.8,1.3,1.3,0,0,1,1.8.356h0A56.094,56.094,0,0,0,7.938,7.3a38.98,38.98,0,0,1,5.723-4.2,20.565,20.565,0,0,1,11.7-3.245A16.724,16.724,0,0,1,35.375,4.117,18.482,18.482,0,0,1,38.783,8a1.3,1.3,0,0,1-.071,1.455C34.3,15.344,29.18,18.253,23.5,18.1a20.5,20.5,0,0,1-9.557-2.935,37.249,37.249,0,0,1-6.009-4.344,72.188,72.188,0,0,0-6.762,7.545A1.3,1.3,0,0,1,.148,18.866Zm9.722-9.8a34.259,34.259,0,0,0,5.384,3.861,17.929,17.929,0,0,0,8.317,2.58,12.732,12.732,0,0,0,6.452-1.571,20.222,20.222,0,0,0,6.036-5.3,17.435,17.435,0,0,0-2.466-2.624,13.938,13.938,0,0,0-8.42-3.566,18.074,18.074,0,0,0-10.21,2.9A36.058,36.058,0,0,0,9.87,9.063Z" transform="translate(-11976.055 -12257.054)" fill="#006cb5"/>
    <path id="Tracciato_26" data-name="Tracciato 26" d="M213.581-418.177A5.968,5.968,0,0,0,219.5-424.2a5.971,5.971,0,0,0-6.021-5.915,5.967,5.967,0,0,0-5.919,6.016,5.968,5.968,0,0,0,6.021,5.919" transform="translate(-12127.253 -11816.425)" fill="#006cb5"/>
    <path id="Tracciato_27" data-name="Tracciato 27" d="M207.035-428.34a4.161,4.161,0,0,0,4.126-4.2,4.163,4.163,0,0,0-4.2-4.126,4.161,4.161,0,0,0-4.126,4.2,4.161,4.161,0,0,0,4.2,4.126" transform="translate(-12129.925 -11820.133)" fill="#006cb5"/>
  </g>
</svg>
