<svg xmlns="http://www.w3.org/2000/svg" width="100" height="100" viewBox="0 0 100 100">
  <g id="montagna" transform="translate(11876 12294)">
    <rect id="Rettangolo_411" data-name="Rettangolo 411" width="100" height="100" transform="translate(-11876 -12294)" fill="#006cb5" opacity="0"/>
    <path id="Tracciato_55" data-name="Tracciato 55" d="M60.053,24.2H0a1.25,1.25,0,0,1-1.051-.574,1.25,1.25,0,0,1-.086-1.194L27.156-39.681a1.25,1.25,0,0,1,1.109-.732,1.25,1.25,0,0,1,1.141.681L61.165,22.379A1.25,1.25,0,0,1,60.053,24.2ZM1.943,21.7H58.009L28.359-36.29Z" transform="translate(-11870.955 -12237.893)" fill="#006cb5"/>
    <path id="Tracciato_56" data-name="Tracciato 56" d="M45.7,39.26H15.416a1.25,1.25,0,0,1,0-2.5H43.4L13.287-9.839,1.026,7.794a1.25,1.25,0,0,1-1.74.313,1.25,1.25,0,0,1-.313-1.74L12.3-12.8a1.25,1.25,0,0,1,1.047-.536,1.25,1.25,0,0,1,1.029.571L46.749,37.331A1.25,1.25,0,0,1,45.7,39.26Z" transform="translate(-11826.744 -12252.957)" fill="#006cb5"/>
    <path id="Tracciato_57" data-name="Tracciato 57" d="M6.847,7.987A1.247,1.247,0,0,1,6,7.66L-.843,1.4A1.25,1.25,0,0,1-.923-.363,1.25,1.25,0,0,1,.843-.442l6.041,5.52L13.682-.6a1.25,1.25,0,0,1,1.655.046L21.073,4.81l5.479-6.44a1.25,1.25,0,0,1,1.762-.142A1.25,1.25,0,0,1,28.456-.01L22.128,7.428a1.25,1.25,0,0,1-1.806.1l-5.886-5.5L7.648,7.7A1.247,1.247,0,0,1,6.847,7.987Z" transform="translate(-11856.899 -12246.104)" fill="#006cb5"/>
    <path id="Tracciato_58" data-name="Tracciato 58" d="M15.36,4.558a1.25,1.25,0,0,1-.887-.37L7.46-2.88.883,3.681a1.25,1.25,0,0,1-1.768,0,1.25,1.25,0,0,1,0-1.768L6.582-5.535A1.25,1.25,0,0,1,7.468-5.9a1.25,1.25,0,0,1,.884.37l6.914,6.97,5.677-7A1.25,1.25,0,0,1,22.7-5.743a1.25,1.25,0,0,1,.183,1.758L16.331,4.1a1.25,1.25,0,0,1-.908.461Z" transform="translate(-11820.555 -12236.949)" fill="#006cb5"/>
  </g>
</svg>
