<svg xmlns="http://www.w3.org/2000/svg" width="100" height="100" viewBox="0 0 100 100">
  <g id="pianura" transform="translate(11644 12294)">
    <rect id="Rettangolo_413" data-name="Rettangolo 413" width="100" height="100" transform="translate(-11644 -12294)" fill="#006cb5" opacity="0"/>
    <path id="Tracciato_8375" data-name="Tracciato 8375" d="M118.74,34.023c-.161-.014-.3.11-.421.157L104,43.447a.859.859,0,0,0-.395.711q0,31.163,0,62.337a.876.876,0,0,0,.843.843H176.89a.875.875,0,0,0,.843-.843c0-20.556,0-35.764,0-56.44a.843.843,0,1,0-1.685,0v4.107c-2.664-.341-5.477-.653-8.424-.921V50.055a.843.843,0,1,0-1.685,0v3.027c-2.738-.233-5.562-.433-8.424-.605V50.055a.843.843,0,1,0-1.685,0v2.316c-2.231-.125-4.492-.228-6.739-.316v-2a.843.843,0,1,0-1.685,0V52c-2.264-.079-4.514-.142-6.739-.185V50.054a.843.843,0,1,0-1.685,0v1.711c-1.715-.026-3.391-.023-5.054-.026V44.158a.858.858,0,0,0-.395-.711l-14.32-9.266a.848.848,0,0,0-.474-.158Zm.026,1.843,13.478,8.714V55.926c-1.723-.195-3.45-.369-5.212-.5-.053-.042-.105-.089-.158-.132l-.079.105c-.149-.011-.3-.016-.448-.026v-9.53A.876.876,0,0,0,125.5,45H111.869a.87.87,0,0,0-.684.843v9.135c-1.923.02-3.88.048-5.9.105v-10.5l13.478-8.714Zm-5.9,10.819h11.793v8.582c-4.306-.225-7.988-.316-11.793-.316Zm21.06,6.739c1.656,0,3.344,0,5.054.026v3.422c-1.672-.281-3.364-.551-5.054-.763V53.424Zm6.739.079q3.342.063,6.739.185v4.9c-2.254-.549-4.493-1.037-6.739-1.448Zm8.424.237c2.258.088,4.5.217,6.739.342v6.871q-3.41-1.086-6.739-1.948Zm8.424.421c2.867.172,5.688.372,8.424.605v9.819q-4.322-1.721-8.424-3.08Zm10.109.763c2.944.268,5.776.579,8.424.921V68.956q-4.35-2.011-8.424-3.686Zm-53.57,1.711c16.332,13.081,24.625,32.629,24.9,49.016h-20.19c-.057-16.195-1.82-32.57-12.741-48.886,2.764-.076,5.448-.135,8.029-.132Zm2.711.026q4.941.072,9.582.395A121.97,121.97,0,0,1,148.83,81.065c6.027,8.64,10.05,17.455,10.345,24.587H140.643c-.266-16.378-8.2-35.6-23.876-48.991Zm12.53.632a122.478,122.478,0,0,1,12.583,1.79,250.954,250.954,0,0,1,23.455,21.138c3.979,4.359,9.033,10.256,10.714,16.163v9.267H160.86c-.29-7.715-4.513-16.749-10.661-25.562a123.219,123.219,0,0,0-20.9-22.8Zm-24.008,1.421c10.093,15.617,11.74,31.2,11.793,46.936H105.289Zm40.2,1.132c9.522,2.192,19.2,5.682,30.562,10.977v20.27a67.027,67.027,0,0,0-9.5-12.031,244,244,0,0,0-21.06-19.217Z" transform="translate(-11734.668 -12314.68)" fill="#006cb5"/>
    <path id="Tracciato_8375_-_Contorno" data-name="Tracciato 8375 - Contorno" d="M118.34,33.615l.408.007a1.255,1.255,0,0,1,.69.227l14.311,9.26a1.251,1.251,0,0,1,.58,1.048v7.182h.431c1.245,0,2.528,0,3.823.019v-1.3a1.266,1.266,0,0,1,1.087-1.272,1.122,1.122,0,0,1,.141-.009,1.266,1.266,0,0,1,.9.4,1.233,1.233,0,0,1,.354.883v1.365c1.928.039,3.922.094,5.939.163V50.061a1.267,1.267,0,0,1,1.087-1.272,1.12,1.12,0,0,1,.141-.009,1.266,1.266,0,0,1,.9.4,1.234,1.234,0,0,1,.355.883v1.609c2.128.085,4.079.176,5.939.278V50.062a1.267,1.267,0,0,1,1.087-1.272,1.125,1.125,0,0,1,.141-.009,1.266,1.266,0,0,1,.9.4,1.234,1.234,0,0,1,.355.883V52.1c2.684.164,5.245.348,7.624.547V50.062a1.267,1.267,0,0,1,1.087-1.272,1.123,1.123,0,0,1,.141-.009,1.267,1.267,0,0,1,.9.4,1.233,1.233,0,0,1,.355.883v2.814c2.566.238,5.126.517,7.624.832V50.062a1.267,1.267,0,0,1,1.087-1.272,1.123,1.123,0,0,1,.141-.009,1.266,1.266,0,0,1,.9.4,1.233,1.233,0,0,1,.354.883c0,7.11,0,13.573,0,19.83,0,11.935,0,23.119,0,36.6a1.275,1.275,0,0,1-1.243,1.243H104.446a1.276,1.276,0,0,1-1.243-1.243V85.713q0-20.78,0-41.555a1.254,1.254,0,0,1,.58-1.048l14.355-9.289.041-.015c.012,0,.045-.023.069-.036s.058-.033.093-.05Zm.472.816-.088-.008c-.021.008-.059.03-.085.044s-.084.047-.133.069l-14.295,9.25a.459.459,0,0,0-.207.374q0,20.772,0,41.553v20.782a.48.48,0,0,0,.443.443H176.89a.479.479,0,0,0,.443-.443c0-13.485,0-24.668,0-36.6,0-6.259,0-12.724,0-19.837v-.016a.43.43,0,0,0-.131-.305.454.454,0,0,0-.366-.151.476.476,0,0,0-.388.456v4.577L176,54.559c-2.748-.352-5.577-.662-8.409-.92l-.364-.033V50.04a.431.431,0,0,0-.132-.306.454.454,0,0,0-.366-.151.476.476,0,0,0-.388.456v3.479l-.434-.037c-2.6-.222-5.435-.425-8.414-.6l-.376-.023V50.04a.431.431,0,0,0-.132-.306.454.454,0,0,0-.366-.151.476.476,0,0,0-.388.456v2.755l-.422-.024c-2.093-.117-4.3-.22-6.733-.316l-.384-.015v-2.4a.431.431,0,0,0-.132-.306.454.454,0,0,0-.366-.15.476.476,0,0,0-.388.456v2.378l-.414-.015c-2.292-.08-4.557-.142-6.733-.184l-.392-.008V50.038a.43.43,0,0,0-.131-.306.453.453,0,0,0-.366-.151.476.476,0,0,0-.388.456v2.133l-.406-.006c-1.427-.021-2.846-.023-4.218-.025l-1.23,0V44.158a.457.457,0,0,0-.207-.372l0,0L118.981,34.5A.447.447,0,0,0,118.812,34.431Zm-.219.848.39.251,13.661,8.832V56.374l-.445-.05c-1.974-.223-3.625-.381-5.2-.5l-.124-.009-.012-.01-.1-.008c-.079-.006-.158-.01-.237-.014l-.208-.012-.373-.025v-9.9a.48.48,0,0,0-.443-.443h-13.59a.474.474,0,0,0-.329.435v9.538l-.4,0c-1.7.018-3.729.044-5.89.105l-.411.012V44.363l.183-.118,5.876-3.8,7.5-4.851ZM131.844,44.8l-13.077-8.455-7.386,4.775-5.693,3.68v9.875c1.849-.049,3.589-.073,5.1-.09V45.847a1.271,1.271,0,0,1,1.01-1.238l.037-.007H125.5a1.276,1.276,0,0,1,1.243,1.243V54.8l.053-.071.323.258.067.055c1.424.108,2.916.25,4.654.442Zm-19.373,1.488h12.593v9.4l-.421-.022c-4.175-.218-7.806-.316-11.772-.316h-.4Zm11.793.8H113.271v7.466c3.693.006,7.119.1,10.993.295Zm9.667,5.939c1.55,0,3.307,0,5.06.026l.394.006v4.289l-.466-.079c-1.39-.234-3.218-.532-5.037-.761l-.35-.044V53.424h.4Zm4.654.82c-1.467-.019-2.926-.02-4.254-.02v1.933c1.519.2,3.021.438,4.254.643Zm1.685-.749.408.008c2.16.041,4.366.1,6.746.185l.386.014v5.792l-.495-.12c-2.386-.581-4.583-1.053-6.717-1.443l-.328-.06Zm6.739.979c-2.08-.071-4.031-.125-5.939-.163V56.8c1.9.353,3.848.771,5.939,1.273Zm1.684-.75.416.016c2.034.079,4.086.194,6.07.3l1.054.059v7.8l-.521-.166c-2.26-.72-4.52-1.373-6.718-1.942l-.3-.078Zm6.739,1.136-.3-.017c-1.846-.1-3.75-.209-5.641-.287V58.7c1.948.51,3.942,1.084,5.939,1.711Zm1.685-.724.424.025c2.979.179,5.817.383,8.434.606l.366.031V65.176l-.548-.218c-2.806-1.117-5.633-2.151-8.4-3.072l-.274-.091Zm8.424,1.4c-2.383-.2-4.944-.384-7.624-.548v6.631c2.516.842,5.077,1.776,7.624,2.78Zm1.685-.648.436.04c2.919.266,5.758.577,8.439.923l.349.045V69.582l-.568-.262c-2.934-1.356-5.762-2.593-8.408-3.679l-.248-.1Zm8.424,1.711c-2.433-.31-4.994-.59-7.624-.835V65c2.413.994,4.973,2.112,7.624,3.329ZM128.5,56.093l.963.814a122.179,122.179,0,0,1,12.5,1.784l.1.019.077.061a251.743,251.743,0,0,1,23.494,21.174l.006.006c4.425,4.849,9.169,10.58,10.8,16.323l.015.054v9.722H160.474l-.014-.385c-.264-7.03-3.926-15.8-10.59-25.348a122.9,122.9,0,0,0-20.734-22.637L129,57.668l-.082-.254Zm13.208,3.364c-3.635-.713-7.307-1.253-11.186-1.644a123.584,123.584,0,0,1,20.006,22.047,76.234,76.234,0,0,1,7.567,13.264,36.108,36.108,0,0,1,3.148,12.127h14.406v-8.81c-1.6-5.566-6.259-11.183-10.606-15.946A250.734,250.734,0,0,0,141.706,59.457Zm-27.869-3.222h1.1l-.309.351a66.918,66.918,0,0,1,10.48,10.675,68.974,68.974,0,0,1,7.775,12.468,66.943,66.943,0,0,1,4.748,13.094,57.749,57.749,0,0,1,1.723,12.822l.007.407h-21v-.4a114.133,114.133,0,0,0-2.287-24.312A70.487,70.487,0,0,0,105.7,56.99l-.4-.6.725-.02C108.378,56.3,111.153,56.235,113.838,56.235Zm.076.8h-.076c-2.407,0-4.889.054-7.078.112,10.711,16.339,12.328,32.759,12.407,48.105H138.55a57.165,57.165,0,0,0-1.692-12.237,66.143,66.143,0,0,0-4.691-12.937,68.174,68.174,0,0,0-7.684-12.323A66.085,66.085,0,0,0,113.914,57.036Zm2.859-.773.144,0c3.282.05,6.464.183,9.46.394l.126.009.1.079a122.584,122.584,0,0,1,12.048,11.232,114.84,114.84,0,0,1,10.509,12.858,74.141,74.141,0,0,1,7.361,12.93,34.271,34.271,0,0,1,3.055,11.869l.017.417H140.249l-.006-.394a63.348,63.348,0,0,0-6.122-25.454,69.683,69.683,0,0,0-7.368-12.3,68.083,68.083,0,0,0-10.245-10.936l.259-.3Zm9.422,1.185c-2.652-.184-5.45-.307-8.334-.366a68.974,68.974,0,0,1,9.533,10.341,70.483,70.483,0,0,1,7.452,12.445,64.308,64.308,0,0,1,6.189,25.385h17.719a34.153,34.153,0,0,0-2.97-11.17A73.346,73.346,0,0,0,148.5,81.294a114.041,114.041,0,0,0-10.436-12.768A121.864,121.864,0,0,0,126.2,57.447Zm-21.306-.088.736,1.139a69.57,69.57,0,0,1,9.717,23.557,114.524,114.524,0,0,1,2.141,23.6v.4H104.889Zm11.791,47.892c-.064-11.954-1.165-18.582-2.121-23.028a68.775,68.775,0,0,0-8.87-22.128v45.156Zm28.9-45.793a153.326,153.326,0,0,1,30.641,11l.231.108V92.6l-.747-1.3a66.394,66.394,0,0,0-9.446-11.954,243.177,243.177,0,0,0-21.023-19.183l.261-.339ZM175.648,71.08a155.379,155.379,0,0,0-28.576-10.443,239.6,239.6,0,0,1,19.762,18.152,72.1,72.1,0,0,1,8.814,10.864Z" transform="translate(-11734.668 -12314.68)" fill="#006cb5"/>
  </g>
</svg>
