<svg xmlns="http://www.w3.org/2000/svg" width="162.011" height="267.477" viewBox="0 0 162.011 267.477">
  <g id="Raggruppa_966" data-name="Raggruppa 966" transform="translate(-134.263 -8.639) rotate(-11)">
    <rect id="Rettangolo_188" data-name="Rettangolo 188" width="109.997" height="219" transform="translate(128.933 83.105)" fill="#fff"/>
    <path id="Tracciato_7342" data-name="Tracciato 7342" d="M234.272,320.19h-61.93a3.124,3.124,0,0,0,0,6.248h61.93a3.124,3.124,0,1,0,0-6.248Z" transform="translate(-19.158 -116.895)" fill="#197db3"/>
    <path id="Tracciato_7343" data-name="Tracciato 7343" d="M234.272,368.4h-61.93a3.124,3.124,0,0,0,0,6.248h61.93a3.124,3.124,0,1,0,0-6.248Z" transform="translate(-19.158 -138.219)" fill="#197db3"/>
    <path id="Tracciato_7344" data-name="Tracciato 7344" d="M129.032,305.757h110.23a3.124,3.124,0,0,0,3.124-3.124V83.678a3.124,3.124,0,0,0-3.124-3.124h-17.2V59.04a3.123,3.123,0,0,0-3.947-3.013L128.207,80.663c-.07.02-.118.07-.183.091a2.964,2.964,0,0,0-.575.29,3.2,3.2,0,0,0-.473.318,5.113,5.113,0,0,0-.719.941,4.807,4.807,0,0,0-.309,1.168c0,.07-.041.131-.041.2V302.629a3.128,3.128,0,0,0,3.124,3.128Zm107.107-6.248H132.155V86.8H236.139ZM215.818,80.554H152.243l63.575-17.418Z" transform="translate(0)" fill="#197db3"/>
    <g id="Compass-4" transform="translate(147.705 114.254)">
      <g id="icomoon-ignore">
        <line id="Linea_314" data-name="Linea 314" stroke="#197db3" stroke-width="3.5"/>
      </g>
      <path id="Tracciato_7346" data-name="Tracciato 7346" d="M36.442,2.429A34.013,34.013,0,1,1,2.429,36.442,34.05,34.05,0,0,1,36.442,2.429Zm0-2.429A36.442,36.442,0,1,0,72.885,36.442,36.443,36.443,0,0,0,36.442,0Z" fill="#d44400" stroke="#197db3" stroke-width="3.5"/>
      <path id="Tracciato_7347" data-name="Tracciato 7347" d="M34.214,67.947a1.216,1.216,0,0,1-1.207-1.358c2.779-23.581,10.624-34.555,31.088-43.483a1.215,1.215,0,0,1,1.7,1.178c-1.178,21.63-9.6,33.432-31.063,43.549a1.224,1.224,0,0,1-.515.114Zm29.02-41.8C45.487,34.313,38.5,44.077,35.7,64.667,54.323,55.445,61.767,45.029,63.234,26.15Z" transform="translate(-12.956 -9.032)" fill="#d44400" stroke="#197db3" stroke-width="3.5"/>
      <circle id="Ellisse_149" data-name="Ellisse 149" cx="4.25" cy="4.25" r="4.25" transform="translate(32.204 32.142)" fill="#197db3"/>
    </g>
  </g>
</svg>
