<svg xmlns="http://www.w3.org/2000/svg" width="916.544" height="326.721" viewBox="0 0 916.544 326.721">
  <g id="Raggruppa_1030" data-name="Raggruppa 1030" transform="translate(-525.671 -2070.205)" opacity="0.502">
    <path id="Tracciato_7349" data-name="Tracciato 7349" d="M-15163.5-20921s79.567,18.1,44,41.176-189.628-16.373-186.276,51.121,273.465-22.906,315.555,27.385-136.332,130.35-24.68,188.795,169.415-68.3,295.027-108.164,186.7,46.848,224.563,0,60.229,5.611,102.706-5.152" transform="translate(15833 22993)" fill="none" stroke="#197db3" stroke-linecap="round" stroke-width="3" stroke-dasharray="8 10"/>
    <g id="Raggruppa_1002" data-name="Raggruppa 1002" transform="translate(-159.95 1616.922)">
      <path id="Tracciato_7516" data-name="Tracciato 7516" d="M955.345,576.788c-11.332-3.281-20.959,4.527-26.981,13.3-6.653,9.654-7.555,21.693-.135,31.249,6.929,8.893,19.248,12.125,29.911,9.114,11.057-3.119,21.757-12.482,20.743-24.823a35.409,35.409,0,0,0-7.015-18.066c-4.187-5.488-10.107-8.58-16.518-10.792-1.619-.54-2.353,2.04-.718,2.606,4.922,1.689,9.713,3.918,13.345,7.744a32.026,32.026,0,0,1,7.339,13.787c1.446,5.4,1.414,11.192-1.9,15.913a29.546,29.546,0,0,1-11.947,9.535c-9.173,4.144-20.565,3.141-28.271-3.659a22.378,22.378,0,0,1-4.857-27.4c4.927-9.352,14.737-19.275,26.323-15.924a1.353,1.353,0,0,0,.718-2.606Z" fill="#04334d"/>
      <path id="Tracciato_7517" data-name="Tracciato 7517" d="M960.332,610.242l17-12.034-1.98-1.522q-1.878,9.751-3.777,19.507c-.329,1.694,2.272,2.423,2.6.718q1.878-9.751,3.777-19.507c.205-1.041-.934-2.266-1.98-1.527l-17,12.034C957.564,608.9,958.913,611.246,960.332,610.242Z" transform="translate(-16.281 -9.037)" fill="#04334d"/>
      <path id="Tracciato_7518" data-name="Tracciato 7518" d="M955.288,618.918q-2.218,9.244-3.918,18.59a1.371,1.371,0,0,0,1.98,1.527q8.467-5.24,17.014-10.334A1.35,1.35,0,0,0,969,626.37q-8.548,5.1-17.014,10.334l1.98,1.522q1.7-9.346,3.918-18.59C958.293,617.947,955.692,617.229,955.288,618.918Z" transform="translate(-13.045 -19.304)" fill="#04334d"/>
      <path id="Tracciato_7519" data-name="Tracciato 7519" d="M968.637,579.058a37.257,37.257,0,0,0,.281,5.083,1.387,1.387,0,0,0,1.349,1.349,1.349,1.349,0,0,0,1.349-1.349,37.217,37.217,0,0,1-.281-5.083A1.35,1.35,0,0,0,968.637,579.058Z" transform="translate(-21.004 -0.797)" fill="#04334d"/>
      <path id="Tracciato_7520" data-name="Tracciato 7520" d="M973.834,661.3c.232,2.466.356,4.927.372,7.4a1.35,1.35,0,0,0,2.7,0c0-2.471-.14-4.932-.372-7.4C976.376,659.59,973.672,659.574,973.834,661.3Z" transform="translate(-23.394 -38.667)" fill="#04334d"/>
      <path id="Tracciato_7521" data-name="Tracciato 7521" d="M1012.941,628.031l5.234-1c1.705-.329.982-2.93-.718-2.606l-5.229,1C1010.524,625.754,1011.247,628.355,1012.941,628.031Z" transform="translate(-40.625 -22.271)" fill="#04334d"/>
      <path id="Tracciato_7522" data-name="Tracciato 7522" d="M925.116,628.494l6.767-.977c1.711-.248.982-2.849-.718-2.6l-6.761.977C922.688,626.141,923.416,628.742,925.116,628.494Z" transform="translate(-0.19 -22.502)" fill="#04334d"/>
      <path id="Tracciato_7523" data-name="Tracciato 7523" d="M966.652,619.734c-2.833.815-3.065,4.393-2.007,6.713,1.187,2.612,4.49,2.7,6.475.923A5.2,5.2,0,0,0,972.1,621a4.254,4.254,0,0,0-6.475-.675c-1.3,1.166.615,3.07,1.9,1.91,1.824-1.619,3.178,1.176,2.158,2.7-.475.707-1.657,1.452-2.4.658-.54-.588-.874-2.984.124-3.27a1.35,1.35,0,0,0-.718-2.6Z" transform="translate(-18.9 -19.851)" fill="#04334d"/>
      <path id="Tracciato_7524" data-name="Tracciato 7524" d="M958.669,619.845a25.635,25.635,0,0,0,3.518,2.52,1.352,1.352,0,0,0,1.365-2.331,21.251,21.251,0,0,1-2.973-2.1,1.387,1.387,0,0,0-1.91,0,1.371,1.371,0,0,0,0,1.91Z" transform="translate(-16.238 -19.12)" fill="#04334d"/>
      <path id="Tracciato_7525" data-name="Tracciato 7525" d="M975.495,630.9a12.727,12.727,0,0,0,4.457,2.628c1.619.54,2.353-2.04.718-2.6a9.334,9.334,0,0,1-3.265-1.937c-1.284-1.165-3.2.739-1.91,1.91Z" transform="translate(-23.965 -24.217)" fill="#04334d"/>
    </g>
    <g id="Raggruppa_984" data-name="Raggruppa 984" transform="translate(1038.17 1878.527)">
      <path id="Tracciato_7381" data-name="Tracciato 7381" d="M100.332,388.855A619.66,619.66,0,0,1,138.1,338.839c1-1.194-.716-2.923-1.725-1.725a628.8,628.8,0,0,0-38.148,50.509C97.346,388.923,99.455,390.146,100.332,388.855Z" transform="translate(-15.11 -28.123)" fill="#04334d"/>
      <path id="Tracciato_7382" data-name="Tracciato 7382" d="M175.731,339.125a561.945,561.945,0,0,0,31.6,50.947c.887,1.276,3,.058,2.1-1.233a561.853,561.853,0,0,1-31.6-50.942C177.08,336.524,174.975,337.751,175.731,339.125Z" transform="translate(-54.879 -28.424)" fill="#04334d"/>
      <path id="Tracciato_7383" data-name="Tracciato 7383" d="M175.867,340.336a276.285,276.285,0,0,0,41.554,46.84c1.164,1.047,2.894-.672,1.725-1.72A273.456,273.456,0,0,1,177.972,339.1c-.9-1.272-3.011-.059-2.1,1.233Z" transform="translate(-54.918 -29.074)" fill="#04334d"/>
      <path id="Tracciato_7384" data-name="Tracciato 7384" d="M263.211,437.683q-.19-3.815-.385-7.635c-.4.409-.814.814-1.218,1.218a19.322,19.322,0,0,0,2.241.19l.624.058-.278-.331a10.367,10.367,0,0,0-.731,1.428q-1.237,2.436-2.48,4.848c-.711,1.393,1.389,2.626,2.1,1.228q1.169-2.28,2.334-4.56c.487-.906,1.286-2,1.281-3.055,0-2.436-3.488-2.1-5.1-2.241a1.228,1.228,0,0,0-1.218,1.218q.19,3.815.385,7.635c.078,1.559,2.514,1.569,2.436,0Z" transform="translate(-98.374 -75.362)" fill="#04334d"/>
      <path id="Tracciato_7385" data-name="Tracciato 7385" d="M74.479,437.683q.19-3.815.385-7.635a1.223,1.223,0,0,0-1.218-1.218c-1.6.136-5.091-.21-5.1,2.241,0,1.033.833,2.183,1.281,3.055q1.164,2.256,2.348,4.531c.716,1.4,2.816.166,2.1-1.228q-1.242-2.436-2.48-4.848c-.136-.258-.351-.974-.585-1.14-.063-.336-.156-.375-.287-.122-.229.2-.171.244.175.136a8.361,8.361,0,0,0,2.553-.219c-.4-.4-.814-.809-1.218-1.218q-.19,3.815-.385,7.635c-.078,1.564,2.358,1.564,2.436,0Z" transform="translate(0 -75.362)" fill="#04334d"/>
      <path id="Tracciato_7386" data-name="Tracciato 7386" d="M124.1,338.787c-7.488,8.283-15.23,16.282-23.05,24.229-7.518,7.639-14.753,15.98-23.9,21.715-1.325.828-.107,2.923,1.228,2.1,9.086-5.691,16.268-13.842,23.737-21.437,8.044-8.166,16.01-16.409,23.707-24.9,1.052-1.16-.663-2.884-1.72-1.72Z" transform="translate(-4.116 -28.982)" fill="#04334d"/>
      <path id="Tracciato_7387" data-name="Tracciato 7387" d="M174.933,338.17q.088,7.279-.336,14.538c-.093,1.569,2.343,1.564,2.436,0q.434-7.264.336-14.538A1.219,1.219,0,0,0,174.933,338.17Z" transform="translate(-54.379 -28.267)" fill="#04334d"/>
      <path id="Tracciato_7388" data-name="Tracciato 7388" d="M150.221,356.224a256.939,256.939,0,0,1-23.449,41.627c-.9,1.291,1.213,2.509,2.1,1.228a256.562,256.562,0,0,0,23.474-41.622c.633-1.423-1.462-2.66-2.1-1.233Z" transform="translate(-29.744 -37.805)" fill="#04334d"/>
      <path id="Tracciato_7389" data-name="Tracciato 7389" d="M174.2,357.887c.818,13.958-1.374,27.956.76,41.851.239,1.544,2.587.887,2.353-.648-2.1-13.642.132-27.478-.677-41.2C176.547,356.333,174.111,356.319,174.2,357.887Z" transform="translate(-54.073 -38.382)" fill="#04334d"/>
      <path id="Tracciato_7390" data-name="Tracciato 7390" d="M149.375,358.143c-3.756,7.8-9.393,14.616-14.986,21.145a51.8,51.8,0,0,1-4.453,4.677c-1.179,1.072-2.685,1.993-3.41,3.464-.653,1.34-.551,3.1-.59,4.546-.078,2.577-.044,5.155.063,7.737.058,1.559,2.5,1.569,2.436,0-.093-2.256-.132-4.512-.088-6.772.049-2.607-.083-4.307,2-6.119a67.128,67.128,0,0,0,7.966-8.463c4.872-5.978,9.788-12,13.155-19,.677-1.408-1.423-2.646-2.1-1.233Z" transform="translate(-29.405 -38.784)" fill="#04334d"/>
      <path id="Tracciato_7391" data-name="Tracciato 7391" d="M95.377,443.486c12.443.794,24.921.848,37.383,1.043,12.3.195,24.6.175,36.794-1.657,1.544-.234.887-2.577-.648-2.348-12.273,1.842-24.706,1.754-37.086,1.554-12.146-.195-24.312-.253-36.443-1.028-1.564-.1-1.559,2.334,0,2.436Z" transform="translate(-13.156 -81.35)" fill="#04334d"/>
      <path id="Tracciato_7392" data-name="Tracciato 7392" d="M247.717,327.762q-.2,15.479-1.16,30.923c-.1,1.569,2.339,1.564,2.436,0q.974-15.44,1.16-30.923A1.219,1.219,0,0,0,247.717,327.762Z" transform="translate(-91.279 -22.931)" fill="#04334d"/>
      <path id="Tracciato_7393" data-name="Tracciato 7393" d="M236.7,335.4a39.274,39.274,0,0,0,7.518-9.13h-2.124a22.8,22.8,0,0,0,7.308,9.169c1.247.945,2.465-1.169,1.228-2.1a20.463,20.463,0,0,1-6.417-8.283,1.229,1.229,0,0,0-2.1,0,37.053,37.053,0,0,1-7.138,8.633c-1.169,1.047.555,2.767,1.725,1.725Z" transform="translate(-85.139 -21.84)" fill="#04334d"/>
      <path id="Tracciato_7394" data-name="Tracciato 7394" d="M237.544,352.245A33.427,33.427,0,0,0,244.3,342.9h-2.1a48.722,48.722,0,0,0,8.419,9.174c1.194,1,2.923-.711,1.72-1.72a46.391,46.391,0,0,1-8.034-8.687,1.235,1.235,0,0,0-2.1,0,31.562,31.562,0,0,1-6.373,8.857c-1.125,1.1.6,2.816,1.72,1.72Z" transform="translate(-85.589 -30.362)" fill="#04334d"/>
      <path id="Tracciato_7395" data-name="Tracciato 7395" d="M83.592,327.762q-.19,15.479-1.155,30.923c-.1,1.569,2.339,1.564,2.436,0q.974-15.44,1.155-30.923A1.219,1.219,0,0,0,83.592,327.762Z" transform="translate(-7.12 -22.931)" fill="#04334d"/>
      <path id="Tracciato_7396" data-name="Tracciato 7396" d="M72.6,335.381a39.293,39.293,0,0,0,7.522-9.13h-2.1a22.792,22.792,0,0,0,7.308,9.15c1.252.945,2.465-1.169,1.233-2.1a20.424,20.424,0,0,1-6.417-8.283,1.229,1.229,0,0,0-2.1,0,37.194,37.194,0,0,1-7.142,8.633c-1.169,1.048.56,2.767,1.725,1.725Z" transform="translate(-1.001 -21.82)" fill="#04334d"/>
      <path id="Tracciato_7397" data-name="Tracciato 7397" d="M73.422,352.235a33.426,33.426,0,0,0,6.758-9.354h-2.1a48.681,48.681,0,0,0,8.414,9.174c1.194,1,2.923-.711,1.725-1.72a46.392,46.392,0,0,1-8.034-8.687,1.235,1.235,0,0,0-2.1,0,31.58,31.58,0,0,1-6.378,8.857c-1.121,1.1.6,2.816,1.725,1.72Z" transform="translate(-1.427 -30.352)" fill="#04334d"/>
      <path id="Tracciato_7398" data-name="Tracciato 7398" d="M205.189,285.2q.555,15.464.341,30.943a1.219,1.219,0,0,0,2.436,0q.219-15.474-.341-30.943C207.566,283.64,205.13,283.635,205.189,285.2Z" transform="translate(-70.067 -1.109)" fill="#04334d"/>
      <path id="Tracciato_7399" data-name="Tracciato 7399" d="M193.8,293.167a39.235,39.235,0,0,0,7.079-9.471h-2.11a22.807,22.807,0,0,0,7.7,8.8c1.3.887,2.519-1.223,1.228-2.1a20.37,20.37,0,0,1-6.821-7.932,1.223,1.223,0,0,0-2.1,0,36.989,36.989,0,0,1-6.7,8.979,1.22,1.22,0,0,0,1.725,1.725Z" transform="translate(-63.154)" fill="#04334d"/>
      <path id="Tracciato_7400" data-name="Tracciato 7400" d="M195.456,309.973a33.315,33.315,0,0,0,6.309-9.652l-1.915.244a48.582,48.582,0,0,0,8.9,8.711c1.247.95,2.436-1.164,1.228-2.1a46.567,46.567,0,0,1-8.4-8.331,1.223,1.223,0,0,0-1.915.244,31.551,31.551,0,0,1-5.924,9.164C192.669,309.4,194.389,311.128,195.456,309.973Z" transform="translate(-64.022 -8.524)" fill="#04334d"/>
      <path id="Tracciato_7401" data-name="Tracciato 7401" d="M130.92,285.559Q129.078,300.93,128,316.365c-.107,1.564,2.329,1.559,2.436,0q1.077-15.435,2.923-30.806C133.546,284,131.1,284.019,130.92,285.559Z" transform="translate(-30.482 -1.298)" fill="#04334d"/>
      <path id="Tracciato_7402" data-name="Tracciato 7402" d="M133.367,292.273a37.2,37.2,0,0,1-5.91-9.52,1.225,1.225,0,0,0-2.1,0,20.341,20.341,0,0,1-7.5,7.308,1.219,1.219,0,0,0,1.228,2.1,22.9,22.9,0,0,0,8.375-8.17h-2.1a39.088,39.088,0,0,0,6.29,10.012c1.018,1.194,2.738-.536,1.72-1.725Z" transform="translate(-24.978 -0.149)" fill="#04334d"/>
      <path id="Tracciato_7403" data-name="Tracciato 7403" d="M129.709,308.963a30.738,30.738,0,0,1-5-9.345,1.228,1.228,0,0,0-2.037-.536,46.378,46.378,0,0,1-9.077,7.576c-1.32.838-.1,2.948,1.228,2.1a49.037,49.037,0,0,0,9.574-7.951l-2.032-.536a34.182,34.182,0,0,0,5.622,10.421c.974,1.233,2.68-.487,1.725-1.725Z" transform="translate(-22.806 -8.649)" fill="#04334d"/>
    </g>
    <g id="Raggruppa_988" data-name="Raggruppa 988" transform="translate(206.063 1987.592)">
      <g id="Raggruppa_987" data-name="Raggruppa 987" transform="translate(674.754 317.502)">
        <path id="Tracciato_7422" data-name="Tracciato 7422" d="M688.705,325.435c-1.881,0-4.1-.66-5.882.173-2.368,1.119-3.073,3.784-3.711,6.078a111.939,111.939,0,0,0-3.952,20.888c-.4,4.948-1.645,12.913,3.845,15.454,2.659,1.231,5.8,1.618,8.659,2.177,3.8.739,7.634,1.327,11.474,1.836,7.489.991,15.011,1.679,22.528,2.362,5.216.493,12.476,2.5,15.006-3.672,1.035-2.535,1.119-5.468,1.422-8.166q.638-6.258.767-12.543c.062-3.067.134-6.185,0-9.252-.118-2.519-.61-4.6-2.6-6.274-2.3-1.937-5.5-2.6-8.328-3.358-4.478-1.17-8.955-2.188-13.483-3.028a155.708,155.708,0,0,0-25.747-2.692,1.4,1.4,0,0,0,0,2.8,162.216,162.216,0,0,1,37.444,5.356c2.457.627,5.278,1.119,7.461,2.468,2.631,1.629,2.468,4.2,2.468,6.963,0,5.989-.078,11.944-.621,17.911a37.377,37.377,0,0,1-1.12,8.009c-1.192,3.739-4.427,3.459-7.674,3.146-6.1-.593-12.2-1.119-18.3-1.763s-12.022-1.371-17.978-2.451c-2.754-.5-5.524-1.019-8.233-1.741a6.229,6.229,0,0,1-3.2-1.472c-1.287-1.338-1.119-3.5-1.2-5.272a81.309,81.309,0,0,1,2.239-19.858,59.6,59.6,0,0,1,2.418-9.263c1.265-3.134,3.521-2.06,6.263-2.037a1.4,1.4,0,0,0,0-2.8Z" transform="translate(-674.754 -320.885)" fill="#04334d"/>
        <path id="Tracciato_7423" data-name="Tracciato 7423" d="M754.581,345.657c-.174,1.92-.353,3.84-.526,5.754-.162,1.8,2.636,1.785,2.8,0,.174-1.914.353-3.834.526-5.754C757.547,343.865,754.743,343.877,754.581,345.657Z" transform="translate(-709.667 -329.309)" fill="#04334d"/>
        <path id="Tracciato_7424" data-name="Tracciato 7424" d="M755.925,347.09q3.778.2,7.55.476l1.881.146c1.008,0,1.355.4,1.058,1.248.274,1.013-.324,2.681-.56,3.711-.369,1.758,2.328,2.513,2.7.744.459-2.166,1.886-6.963-.907-8.138-1.511-.638-3.537-.465-5.133-.56q-3.3-.235-6.6-.409c-1.8-.1-1.8,2.7,0,2.8Z" transform="translate(-709.892 -329.303)" fill="#04334d"/>
        <path id="Tracciato_7425" data-name="Tracciato 7425" d="M754.47,357.733a31.165,31.165,0,0,1,11.939,1.461c1.713.56,2.451-2.149.739-2.7a33.225,33.225,0,0,0-12.677-1.562C752.679,355.057,752.668,357.856,754.47,357.733Z" transform="translate(-709.259 -333.946)" fill="#04334d"/>
        <path id="Tracciato_7426" data-name="Tracciato 7426" d="M718.313,345.131c-3.867-.392-6.856-.353-9.817,2.463a17.91,17.91,0,0,0-5.037,9.582c-1.4,7.836,4.517,14.5,12.146,15.638,17.62,2.642,18.789-28.187,1.6-27.672-1.8.05-1.808,2.849,0,2.8,13.993-.42,12.118,25.931-2.552,21.829-5.966-1.679-9.84-6.929-8.211-13.114a15.358,15.358,0,0,1,4.047-7.08c2.345-2.239,4.875-1.942,7.836-1.64,1.791.179,1.774-2.619,0-2.8Z" transform="translate(-687.302 -329.589)" fill="#04334d"/>
        <path id="Tracciato_7427" data-name="Tracciato 7427" d="M696.581,323.031q.2-2.048.392-4.1c-.465.47-.929.935-1.4,1.4a67.357,67.357,0,0,1,8.569.319c.862.09,4.326.028,4.931.739s.179,1.623.207,2.44c.056,1.8,2.86,1.808,2.8,0-.045-1.31.526-2.541-.157-3.756s-1.909-1.343-3.162-1.578a65.061,65.061,0,0,0-13.175-.963,1.45,1.45,0,0,0-1.4,1.4q-.2,2.06-.392,4.1c-.173,1.791,2.631,1.78,2.8,0Z" transform="translate(-683.134 -317.502)" fill="#04334d"/>
      </g>
      <path id="Tracciato_7428" data-name="Tracciato 7428" d="M676.207,381.019a120.945,120.945,0,0,0,18.935,2.211c1.8.067,1.8-2.731,0-2.8a116.11,116.11,0,0,1-18.191-2.116C675.194,377.969,674.438,380.667,676.207,381.019Z" transform="translate(-0.196 -26.762)" fill="#04334d"/>
      <path id="Tracciato_7429" data-name="Tracciato 7429" d="M741.195,388.964l22.679,3.862c1.763.3,2.519-2.4.744-2.7l-22.69-3.856c-1.763-.3-2.519,2.4-.745,2.7Z" transform="translate(-28.803 -30.269)" fill="#04334d"/>
      <path id="Tracciato_7430" data-name="Tracciato 7430" d="M682.452,351.39A128.749,128.749,0,0,1,697.67,353.3c1.758.325,2.513-2.373.744-2.7a135.508,135.508,0,0,0-15.963-2c-1.8-.112-1.791,2.687,0,2.8Z" transform="translate(-2.797 -13.69)" fill="#04334d"/>
      <path id="Tracciato_7431" data-name="Tracciato 7431" d="M745.942,362.666a203.805,203.805,0,0,1,21.493,2.519c1.758.3,2.519-2.4.744-2.7a210.556,210.556,0,0,0-22.237-2.619C744.145,359.755,744.151,362.554,745.942,362.666Z" transform="translate(-30.751 -18.652)" fill="#04334d"/>
    </g>
    <g id="Raggruppa_993" data-name="Raggruppa 993" transform="translate(1224.587 1699.004)">
      <path id="Tracciato_7449" data-name="Tracciato 7449" d="M138.933,576.6l-16.441,47.731c-.573,1.747,2.165,2.5,2.76.762l16.441-47.731c.607-1.718-2.159-2.5-2.76-.762Z" transform="translate(0 -0.402)" fill="#04334d"/>
      <path id="Tracciato_7450" data-name="Tracciato 7450" d="M140.67,577.471l15.382,4.541c4.083,1.208,9.455,2.027,12.633,5.114,2.388,2.319,1.363,4.644.372,7.4l-2.125,5.973q-2.331,6.477-4.644,12.959T157.632,626.4l-1.97,5.48c-.544,1.518-.7,2.291-2.291,2.617a10.63,10.63,0,0,1-3.6-.47c-8.962-1.609-17.117-6.03-25.438-9.518-1.718-.71-2.44,2.062-.762,2.76,7.88,3.3,15.565,7.4,23.972,9.226,2.422.527,6.826,1.907,8.991.086a6.744,6.744,0,0,0,1.6-3.052q1.065-2.943,2.119-5.9,4.392-12.232,8.767-24.464c1.34-3.74,3.19-7.594,4.049-11.453.681-3.064-.916-5.549-3.3-7.37-3.545-2.7-8.195-3.654-12.387-4.891l-15.92-4.7c-1.77-.527-2.525,2.239-.762,2.76Z" transform="translate(-0.088)" fill="#04334d"/>
      <path id="Tracciato_7451" data-name="Tracciato 7451" d="M171.839,597.386c-4.009-2.692-9.81-1.85-12.433,2.371a9.3,9.3,0,0,0,2.978,12.73,9.638,9.638,0,0,0,12.81-2.428,8.527,8.527,0,0,0-2.457-12.306c-1.563-.991-3,1.483-1.449,2.468,7.032,4.45-.893,13.887-7.445,9.793a6.374,6.374,0,0,1-2.142-8.464c1.792-3.178,5.864-3.613,8.71-1.689,1.529,1.036,2.961-1.443,1.443-2.474Z" transform="translate(-15.223 -9.041)" fill="#04334d"/>
      <path id="Tracciato_7452" data-name="Tracciato 7452" d="M144.745,633.972l19.276,6.643c1.747.573,2.5-2.165.762-2.766l-19.276-6.637c-1.747-.573-2.5,2.165-.762,2.76Z" transform="translate(-9.123 -24.123)" fill="#04334d"/>
      <path id="Tracciato_7453" data-name="Tracciato 7453" d="M141.141,647.072l17.9,6.19c1.718.573,2.5-2.165.762-2.76l-17.9-6.191C140.185,643.739,139.406,646.476,141.141,647.072Z" transform="translate(-7.586 -29.721)" fill="#04334d"/>
      <path id="Tracciato_7454" data-name="Tracciato 7454" d="M154.532,578.035a79.088,79.088,0,0,1,14.821-.166,72.91,72.91,0,0,1,7.76,1.094c.83.166,2.491.206,3.218.71,2.1,1.449.985,2.829.034,4.272-1.019,1.541,1.46,2.978,2.468,1.443,1.145-1.718,2.319-4.083,1.414-6.156-1.105-2.52-4.581-2.686-6.918-3.133a79.423,79.423,0,0,0-22.821-.928c-1.815.189-1.833,3.052,0,2.863Z" transform="translate(-13.131 -0.026)" fill="#04334d"/>
      <path id="Tracciato_7455" data-name="Tracciato 7455" d="M169.751,598.192a13.7,13.7,0,0,0-4.77,13.669c.384,1.8,3.144,1.042,2.76-.762a10.881,10.881,0,0,1,4.009-10.881c1.437-1.145-.573-3.161-2.027-2.021Z" transform="translate(-18.048 -9.904)" fill="#04334d"/>
      <path id="Tracciato_7456" data-name="Tracciato 7456" d="M171.738,601.629a7.284,7.284,0,0,1-2.291,9.329c-1.518,1.031-.086,3.516,1.443,2.474a10.216,10.216,0,0,0,3.31-13.246c-.859-1.632-3.333-.183-2.468,1.443Z" transform="translate(-19.823 -10.592)" fill="#04334d"/>
      <path id="Tracciato_7457" data-name="Tracciato 7457" d="M159.174,604.446c1.426,6.826,14.362,10.256,18.033,3.659.9-1.609-1.575-3.058-2.468-1.443-1.22,2.182-4.112,2-6.265,1.718-2.932-.389-5.876-1.5-6.54-4.7C161.556,601.886,158.8,602.647,159.174,604.446Z" transform="translate(-15.694 -11.954)" fill="#04334d"/>
    </g>
  </g>
</svg>
