<svg id="Raggruppa_781" data-name="Raggruppa 781" xmlns="http://www.w3.org/2000/svg" width="24" height="24" viewBox="0 0 24 24">
  <circle id="Ellisse_126" data-name="Ellisse 126" cx="12" cy="12" r="12" fill="#fff"/>
  <g id="Raggruppa_607" data-name="Raggruppa 607" transform="translate(6.355 6.344)">
    <ellipse id="Ellisse_44" data-name="Ellisse 44" cx="1.809" cy="1.809" rx="1.809" ry="1.809" transform="translate(3.843 3.845)" fill="#4a5358"/>
    <path id="Tracciato_281" data-name="Tracciato 281" d="M36.139,28H31.165A3.169,3.169,0,0,0,28,31.166v4.976a3.169,3.169,0,0,0,3.165,3.166h4.974A3.169,3.169,0,0,0,39.3,36.142V31.166A3.169,3.169,0,0,0,36.139,28Zm-2.487,8.368a2.714,2.714,0,1,1,2.713-2.714A2.714,2.714,0,0,1,33.652,36.368Zm2.939-4.976a.679.679,0,1,1,.678-.679A.678.678,0,0,1,36.591,31.393Z" transform="translate(-28 -28)" fill="#4a5358"/>
  </g>
</svg>
