<svg xmlns="http://www.w3.org/2000/svg" width="24" height="24" viewBox="0 0 24 24">
  <g id="Raggruppa_783" data-name="Raggruppa 783" transform="translate(0 -94.039)">
    <circle id="Ellisse_117" data-name="Ellisse 117" cx="12" cy="12" r="12" transform="translate(0 94.039)" fill="#006cb5"/>
    <path id="Tracciato_7262" data-name="Tracciato 7262" d="M95.617,206.11v4.051H93.268V206.38c0-.947-.34-1.594-1.191-1.594a1.284,1.284,0,0,0-1.2.858,1.583,1.583,0,0,0-.078.573v3.943H88.448s.03-6.4,0-7.062H90.8v1.021h0V204.1a2.323,2.323,0,0,1,2.116-1.165C94.455,202.932,95.617,203.942,95.617,206.11ZM86,199.692a1.224,1.224,0,1,0-.03,2.441h0a1.224,1.224,0,1,0,0-2.441ZM84.79,210.16h2.349V203.1H84.79Z" transform="translate(-78.138 -98.886)" fill="#fff"/>
  </g>
</svg>
