<svg xmlns="http://www.w3.org/2000/svg" width="106.414" height="48.501" viewBox="0 0 106.414 48.501">
  <g id="Raggruppa_2395" data-name="Raggruppa 2395" transform="translate(-24.586 -15.472)">
    <text id="Fvg" transform="translate(75 42.472)" font-size="24" font-family="TitilliumWeb-Bold, Titillium Web" font-weight="700"><tspan x="0" y="0">FVG</tspan></text>
    <text id="per_tutti" data-name="per tutti" transform="translate(75 57.973)" fill="#006cb5" font-size="16" font-family="TitilliumWeb-SemiBold, Titillium Web" font-weight="600"><tspan x="0" y="0">per tutti</tspan></text>
    <g id="logo" transform="translate(0 -3)">
      <path id="Tracciato_8348" data-name="Tracciato 8348" d="M62.711,68.076,52.48,54.918,42.25,68.076" transform="translate(-6.291 -10.699)" fill="none" stroke="#000" stroke-linecap="round" stroke-linejoin="round" stroke-width="3"/>
      <path id="Tracciato_8347" data-name="Tracciato 8347" d="M35.605,49.465S43.157,54.3,50.689,54.3s15.045-4.834,15.045-4.834" transform="translate(-4.48 -10.082)" fill="none" stroke="#000" stroke-linecap="round" stroke-width="3"/>
      <g id="Wheelchair" transform="translate(22.543 9.551)">
        <path id="Tracciato_7309" data-name="Tracciato 7309" d="M26.372,71.1a20.87,20.87,0,1,1,20.874-20.87A20.9,20.9,0,0,1,26.372,71.1Zm0-39.827A18.95,18.95,0,1,0,45.325,50.22,18.972,18.972,0,0,0,26.372,31.27Z" transform="translate(-2.858 -15.255)"/>
        <g id="Tracciato_8343" data-name="Tracciato 8343" transform="translate(-34.258 -19.625)" fill="#006cb5">
          <path d="M 45.7808952331543 72.45014953613281 C 44.22324371337891 72.45014953613281 42.95600509643555 71.18193054199219 42.95600509643555 69.62307739257812 C 42.95600509643555 68.06422424316406 44.22324371337891 66.79600524902344 45.7808952331543 66.79600524902344 C 47.3409538269043 66.79600524902344 48.61016464233398 68.06422424316406 48.61016464233398 69.62307739257812 C 48.61016464233398 71.18193054199219 47.3409538269043 72.45014953613281 45.7808952331543 72.45014953613281 Z" stroke="none"/>
          <path d="M 45.7808952331543 71.45014953613281 C 46.78955459594727 71.45014953613281 47.61016464233398 70.63052368164062 47.61016464233398 69.62307739257812 C 47.61016464233398 68.61563110351562 46.78955459594727 67.79600524902344 45.7808952331543 67.79600524902344 C 44.7746467590332 67.79600524902344 43.95600509643555 68.61563110351562 43.95600509643555 69.62307739257812 C 43.95600509643555 70.63052368164062 44.7746467590332 71.45014953613281 45.7808952331543 71.45014953613281 M 45.7808952331543 73.45014953613281 C 43.67272567749023 73.45014953613281 41.95600509643555 71.73344421386719 41.95600509643555 69.62307739257812 C 41.95600509643555 67.51272583007812 43.67272567749023 65.79600524902344 45.7808952331543 65.79600524902344 C 47.89125442504883 65.79600524902344 49.61016464233398 67.51272583007812 49.61016464233398 69.62307739257812 C 49.61016464233398 71.73344421386719 47.89125442504883 73.45014953613281 45.7808952331543 73.45014953613281 Z" stroke="none" fill="#000"/>
        </g>
        <g id="Tracciato_8344" data-name="Tracciato 8344" transform="translate(-10.258 -19.625)" fill="#006cb5">
          <path d="M 45.7808952331543 72.45014953613281 C 44.22324371337891 72.45014953613281 42.95600509643555 71.18193054199219 42.95600509643555 69.62307739257812 C 42.95600509643555 68.06422424316406 44.22324371337891 66.79600524902344 45.7808952331543 66.79600524902344 C 47.3409538269043 66.79600524902344 48.61016464233398 68.06422424316406 48.61016464233398 69.62307739257812 C 48.61016464233398 71.18193054199219 47.3409538269043 72.45014953613281 45.7808952331543 72.45014953613281 Z" stroke="none"/>
          <path d="M 45.7808952331543 71.45014953613281 C 46.78955459594727 71.45014953613281 47.61016464233398 70.63052368164062 47.61016464233398 69.62307739257812 C 47.61016464233398 68.61563110351562 46.78955459594727 67.79600524902344 45.7808952331543 67.79600524902344 C 44.7746467590332 67.79600524902344 43.95600509643555 68.61563110351562 43.95600509643555 69.62307739257812 C 43.95600509643555 70.63052368164062 44.7746467590332 71.45014953613281 45.7808952331543 71.45014953613281 M 45.7808952331543 73.45014953613281 C 43.67272567749023 73.45014953613281 41.95600509643555 71.73344421386719 41.95600509643555 69.62307739257812 C 41.95600509643555 67.51272583007812 43.67272567749023 65.79600524902344 45.7808952331543 65.79600524902344 C 47.89125442504883 65.79600524902344 49.61016464233398 67.51272583007812 49.61016464233398 69.62307739257812 C 49.61016464233398 71.73344421386719 47.89125442504883 73.45014953613281 45.7808952331543 73.45014953613281 Z" stroke="none" fill="#000"/>
        </g>
        <g id="Tracciato_8345" data-name="Tracciato 8345" transform="translate(-5.258 -41.477)" fill="#006cb5">
          <path d="M 45.7808952331543 72.45014953613281 C 44.22324371337891 72.45014953613281 42.95600509643555 71.18193054199219 42.95600509643555 69.62307739257812 C 42.95600509643555 68.06422424316406 44.22324371337891 66.79600524902344 45.7808952331543 66.79600524902344 C 47.3409538269043 66.79600524902344 48.61016464233398 68.06422424316406 48.61016464233398 69.62307739257812 C 48.61016464233398 71.18193054199219 47.3409538269043 72.45014953613281 45.7808952331543 72.45014953613281 Z" stroke="none"/>
          <path d="M 45.7808952331543 71.45014953613281 C 46.78955459594727 71.45014953613281 47.61016464233398 70.63052368164062 47.61016464233398 69.62307739257812 C 47.61016464233398 68.61563110351562 46.78955459594727 67.79600524902344 45.7808952331543 67.79600524902344 C 44.7746467590332 67.79600524902344 43.95600509643555 68.61563110351562 43.95600509643555 69.62307739257812 C 43.95600509643555 70.63052368164062 44.7746467590332 71.45014953613281 45.7808952331543 71.45014953613281 M 45.7808952331543 73.45014953613281 C 43.67272567749023 73.45014953613281 41.95600509643555 71.73344421386719 41.95600509643555 69.62307739257812 C 41.95600509643555 67.51272583007812 43.67272567749023 65.79600524902344 45.7808952331543 65.79600524902344 C 47.89125442504883 65.79600524902344 49.61016464233398 67.51272583007812 49.61016464233398 69.62307739257812 C 49.61016464233398 71.73344421386719 47.89125442504883 73.45014953613281 45.7808952331543 73.45014953613281 Z" stroke="none" fill="#000"/>
        </g>
        <g id="Tracciato_8349" data-name="Tracciato 8349" transform="translate(-24.387 -47.477)" fill="#006cb5">
          <path d="M 47.89934158325195 76.68944549560547 C 45.17358016967773 76.68944549560547 42.95600891113281 74.47036743164062 42.95600891113281 71.74273681640625 C 42.95600891113281 69.01509857177734 45.17358016967773 66.79601287841797 47.89934158325195 66.79601287841797 C 50.62884902954102 66.79601287841797 52.84947204589844 69.01509857177734 52.84947204589844 71.74273681640625 C 52.84947204589844 74.47036743164062 50.62884902954102 76.68944549560547 47.89934158325195 76.68944549560547 Z" stroke="none"/>
          <path d="M 47.89934158325195 75.68944549560547 C 50.07744979858398 75.68944549560547 51.84947204589844 73.91896057128906 51.84947204589844 71.74273681640625 C 51.84947204589844 69.56650543212891 50.07744979858398 67.79601287841797 47.89934158325195 67.79601287841797 C 45.72497940063477 67.79601287841797 43.95600891113281 69.56650543212891 43.95600891113281 71.74273681640625 C 43.95600891113281 73.91896057128906 45.72497940063477 75.68944549560547 47.89934158325195 75.68944549560547 M 47.89934158325195 77.68944549560547 C 44.62355041503906 77.68944549560547 41.95600891113281 75.02194213867188 41.95600891113281 71.74273681640625 C 41.95600891113281 68.46354675292969 44.62355041503906 65.79601287841797 47.89934158325195 65.79601287841797 C 51.17853164672852 65.79601287841797 53.84947204589844 68.46354675292969 53.84947204589844 71.74273681640625 C 53.84947204589844 75.02194213867188 51.17853164672852 77.68944549560547 47.89934158325195 77.68944549560547 Z" stroke="none" fill="#000"/>
        </g>
        <g id="Tracciato_8346" data-name="Tracciato 8346" transform="translate(-39.913 -41.477)" fill="#006cb5">
          <path d="M 45.7808952331543 72.45014953613281 C 44.22324371337891 72.45014953613281 42.95600509643555 71.18193054199219 42.95600509643555 69.62307739257812 C 42.95600509643555 68.06422424316406 44.22324371337891 66.79600524902344 45.7808952331543 66.79600524902344 C 47.3409538269043 66.79600524902344 48.61016464233398 68.06422424316406 48.61016464233398 69.62307739257812 C 48.61016464233398 71.18193054199219 47.3409538269043 72.45014953613281 45.7808952331543 72.45014953613281 Z" stroke="none"/>
          <path d="M 45.7808952331543 71.45014953613281 C 46.78955459594727 71.45014953613281 47.61016464233398 70.63052368164062 47.61016464233398 69.62307739257812 C 47.61016464233398 68.61563110351562 46.78955459594727 67.79600524902344 45.7808952331543 67.79600524902344 C 44.7746467590332 67.79600524902344 43.95600509643555 68.61563110351562 43.95600509643555 69.62307739257812 C 43.95600509643555 70.63052368164062 44.7746467590332 71.45014953613281 45.7808952331543 71.45014953613281 M 45.7808952331543 73.45014953613281 C 43.67272567749023 73.45014953613281 41.95600509643555 71.73344421386719 41.95600509643555 69.62307739257812 C 41.95600509643555 67.51272583007812 43.67272567749023 65.79600524902344 45.7808952331543 65.79600524902344 C 47.89125442504883 65.79600524902344 49.61016464233398 67.51272583007812 49.61016464233398 69.62307739257812 C 49.61016464233398 71.73344421386719 47.89125442504883 73.45014953613281 45.7808952331543 73.45014953613281 Z" stroke="none" fill="#000"/>
        </g>
      </g>
    </g>
  </g>
</svg>
