<svg xmlns="http://www.w3.org/2000/svg" width="24" height="24" viewBox="0 0 24 24">
  <g id="Raggruppa_784" data-name="Raggruppa 784" transform="translate(-96.27 -188.449)">
    <circle id="Ellisse_121" data-name="Ellisse 121" cx="12" cy="12" r="12" transform="translate(96.27 188.449)" fill="#006cb5"/>
    <path id="Tracciato_7267" data-name="Tracciato 7267" d="M180.18,303.884a6.713,6.713,0,0,0,10.347-5.956,4.764,4.764,0,0,0,1.18-1.224,4.674,4.674,0,0,1-1.358.37,2.371,2.371,0,0,0,1.039-1.306,4.807,4.807,0,0,1-1.5.573,2.364,2.364,0,0,0-4.025,2.153,6.718,6.718,0,0,1-4.868-2.467,2.364,2.364,0,0,0,.74,3.152,2.322,2.322,0,0,1-1.069-.3,2.368,2.368,0,0,0,1.894,2.349,2.394,2.394,0,0,1-1.065.041,2.36,2.36,0,0,0,2.219,1.639A4.753,4.753,0,0,1,180.18,303.884Z" transform="translate(-77.662 -99.832)" fill="#fff"/>
  </g>
</svg>
