<svg xmlns="http://www.w3.org/2000/svg" width="24" height="24" viewBox="0 0 24 24">
  <g id="Raggruppa_785" data-name="Raggruppa 785" transform="translate(0 -188.449)">
    <circle id="Ellisse_119" data-name="Ellisse 119" cx="12" cy="12" r="12" transform="translate(0 188.449)" fill="#006cb5"/>
    <path id="Tracciato_7265" data-name="Tracciato 7265" d="M93.159,297.49H86.578a2.338,2.338,0,0,0-2.338,2.338v3.288a2.338,2.338,0,0,0,2.338,2.331h6.581a2.334,2.334,0,0,0,2.338-2.338V299.82A2.334,2.334,0,0,0,93.159,297.49Zm-1.58,4.143-3.078,1.48a.126.126,0,0,1-.178-.111v-3.03a.126.126,0,0,1,.181-.111l3.078,1.561a.126.126,0,0,1,0,.211Z" transform="translate(-77.87 -101.024)" fill="#fff"/>
  </g>
</svg>
